<svg id="Layer_3_copy" data-name="Layer 3 copy" xmlns="http://www.w3.org/2000/svg" xmlns:xlink="http://www.w3.org/1999/xlink" viewBox="0 0 744.32 901.67"><defs><style>.cls-1{fill:url(#linear-gradient);}.cls-2{fill:url(#linear-gradient-2);}</style><linearGradient id="linear-gradient" x1="392.81" y1="512.86" x2="884.16" y2="512.86" gradientUnits="userSpaceOnUse"><stop offset="0" stop-color="#fff"/><stop offset="0" stop-color="#f27275"/><stop offset="1" stop-color="#ef509d"/></linearGradient><linearGradient id="linear-gradient-2" x1="196.68" y1="915.79" x2="558.26" y2="-128.01" gradientUnits="userSpaceOnUse"><stop offset="0" stop-color="#fff"/><stop offset="0" stop-color="#6174b8"/><stop offset="1" stop-color="#60c6c5"/></linearGradient></defs><path class="cls-1" d="M874.67,244.64a53.32,53.32,0,0,1-6,13.39L639.06,625.52a34.09,34.09,0,0,0-5.19,18.1V946.35a16.49,16.49,0,0,1-16.48,16.48H413.46a20.64,20.64,0,0,1-20.65-20.65V889.89a200.91,200.91,0,0,1,30.52-106.44l363.05-581c20.8-30.37,26.7-76.11,15.47-139.53C868.47,96.47,901.87,151.24,874.67,244.64Z" transform="translate(-139.84 -61.17)"/><path class="cls-2" d="M732.6,220c-1.88,13.39-13.83,41.8-20.58,53.55L382,801.78v0c-9.48,24.55-14.66,48.64-15.3,72.35a113.08,113.08,0,0,1-15.82-22.56Q308.58,772.51,383,615s0,0,0-.05L141.82,233.73a12.63,12.63,0,0,1,10.59-19.39l223.44-1.44a33.09,33.09,0,0,1,28.26,15.5L514.47,403.71l129-207.27a105.43,105.43,0,0,0,15.82-59.28l-2.68-76q29,15.8,46.88,38.82C728.71,132.32,740.16,166.34,732.6,220Z" transform="translate(-139.84 -61.17)"/></svg>